<mxfile host="app.diagrams.net" agent="Mozilla/5.0 (Windows NT 10.0; Win64; x64) AppleWebKit/537.36 (KHTML, like Gecko) Chrome/132.0.0.0 Safari/537.36" version="26.0.11">
  <diagram name="Page-1" id="8EW6QzuMCo8ZkhSTKPlF">
    <mxGraphModel dx="934" dy="962" grid="1" gridSize="10" guides="1" tooltips="1" connect="1" arrows="1" fold="1" page="1" pageScale="1" pageWidth="850" pageHeight="1100" math="0" shadow="0">
      <root>
        <mxCell id="0" />
        <mxCell id="1" parent="0" />
        <mxCell id="X6aKahbuYNGPBKJHZ_4B-1" value="ESP32" style="rounded=1;whiteSpace=wrap;html=1;" vertex="1" parent="1">
          <mxGeometry x="200" y="240" width="120" height="80" as="geometry" />
        </mxCell>
        <mxCell id="X6aKahbuYNGPBKJHZ_4B-3" style="edgeStyle=orthogonalEdgeStyle;rounded=0;orthogonalLoop=1;jettySize=auto;html=1;exitX=1;exitY=0.5;exitDx=0;exitDy=0;entryX=0;entryY=0.25;entryDx=0;entryDy=0;" edge="1" parent="1" source="X6aKahbuYNGPBKJHZ_4B-2" target="X6aKahbuYNGPBKJHZ_4B-1">
          <mxGeometry relative="1" as="geometry" />
        </mxCell>
        <mxCell id="X6aKahbuYNGPBKJHZ_4B-2" value="FLEX&lt;div&gt;SENSORS&lt;/div&gt;" style="rounded=1;whiteSpace=wrap;html=1;" vertex="1" parent="1">
          <mxGeometry x="80" y="40" width="80" height="200" as="geometry" />
        </mxCell>
        <mxCell id="X6aKahbuYNGPBKJHZ_4B-4" value="GYROSCOPE" style="rounded=1;whiteSpace=wrap;html=1;" vertex="1" parent="1">
          <mxGeometry x="50" y="320" width="110" height="70" as="geometry" />
        </mxCell>
        <mxCell id="X6aKahbuYNGPBKJHZ_4B-5" style="edgeStyle=orthogonalEdgeStyle;rounded=0;orthogonalLoop=1;jettySize=auto;html=1;entryX=-0.008;entryY=0.638;entryDx=0;entryDy=0;entryPerimeter=0;" edge="1" parent="1" source="X6aKahbuYNGPBKJHZ_4B-4" target="X6aKahbuYNGPBKJHZ_4B-1">
          <mxGeometry relative="1" as="geometry" />
        </mxCell>
        <mxCell id="X6aKahbuYNGPBKJHZ_4B-8" value="SPEAKER&lt;div&gt;&lt;br&gt;&lt;div&gt;AUDIO OUTPUT&lt;/div&gt;&lt;/div&gt;" style="rounded=1;whiteSpace=wrap;html=1;" vertex="1" parent="1">
          <mxGeometry x="360" y="320" width="90" height="150" as="geometry" />
        </mxCell>
        <mxCell id="X6aKahbuYNGPBKJHZ_4B-9" value="&lt;font style=&quot;font-size: 18px;&quot;&gt;PRIVATE WEBPAGE&lt;/font&gt;&lt;div&gt;&lt;font size=&quot;3&quot;&gt;VISUAL OUTPUT&lt;/font&gt;&lt;/div&gt;" style="rounded=1;whiteSpace=wrap;html=1;" vertex="1" parent="1">
          <mxGeometry x="380" y="30" width="440" height="160" as="geometry" />
        </mxCell>
        <mxCell id="X6aKahbuYNGPBKJHZ_4B-10" value="" style="sketch=0;pointerEvents=1;shadow=0;dashed=0;html=1;strokeColor=none;fillColor=#434445;aspect=fixed;labelPosition=center;verticalLabelPosition=bottom;verticalAlign=top;align=center;outlineConnect=0;shape=mxgraph.vvd.wi_fi;" vertex="1" parent="1">
          <mxGeometry x="330" y="190" width="50" height="50" as="geometry" />
        </mxCell>
      </root>
    </mxGraphModel>
  </diagram>
</mxfile>
